<svg xmlns="http://www.w3.org/2000/svg" viewBox="0 0 351.53 56.79"><defs><style>.cls-1{fill:#101b2f;}</style></defs><g id="Layer_2" data-name="Layer 2"><g id="Layer_1-2" data-name="Layer 1"><path class="cls-1" d="M0,32.19C0,15.51,10.61,6.07,24.81,6.07c12.68,0,23.78,8.61,23.78,24.46,0,16.68-10.61,26.26-24.81,26.26C11.17,56.79,0,48,0,32.19ZM44,31C44,17.78,36.81,7.51,24.33,7.51c-11.79,0-19.71,8.89-19.71,24.2,0,13.23,7.23,23.64,19.64,23.64C36.05,55.35,44,46.32,44,31Z"/><path class="cls-1" d="M57.69,45.56V5.86H52.25V4.69C55.49,4.69,58.93,3,60,0h1.31V45.56c0,8,.68,8.82,5.44,8.82v1.17H52.25V54.38C56.38,54.38,57.69,53.55,57.69,45.56Z"/><path class="cls-1" d="M74.72,45.56V5.86H69.27V4.69C72.51,4.69,76,3,77.06,0h1.31V45.56c0,8,.69,8.82,5.45,8.82v1.17H69.27V54.38C73.41,54.38,74.72,53.55,74.72,45.56Z"/><path class="cls-1" d="M92.43,45.56V25.78H87V24.54c3.17,0,6.68-1.66,7.78-4.69h1.31V45.56c0,8,.07,8.82,5.45,8.82v1.17H87V54.38C91.12,54.38,92.43,53.55,92.43,45.56ZM91.19,8.89a3.24,3.24,0,1,1,6.48,0,3.24,3.24,0,1,1-6.48,0Z"/><path class="cls-1" d="M104.56,38.94c0-11.71,7.58-19.09,17.37-19.09,7.72,0,12.89,4.55,12.89,11,0,3.17-.62,3.72-5,3.72H109a28,28,0,0,0-.2,3.24c0,9.44,5.79,16.68,14.47,16.68,6.2,0,10.68-3.72,13.72-8.41l.82.55c-4,6.55-9,10.2-16.12,10.2C112.63,56.79,104.56,50.94,104.56,38.94Zm18.2-5.65c6.62,0,7.72-.28,7.72-2.48,0-5.45-3-9.72-9.17-9.72-7.17,0-11,5.86-12.13,12.2Z"/><path class="cls-1" d="M157.64,41.08l1.38-.21c2.2,8.89,6.68,14.48,15.37,14.48,8.13,0,12.26-5,12.26-10.89s-4.34-9.17-12.54-12.07C165.29,29.29,158,25.85,158,18.33c0-6.75,6-12.26,14.89-12.26,5.1,0,8,1.79,9.72,1.79,1.31,0,1.93-1.17,1.86-2.69L185.76,5l3.31,14.34-1.38.34c-2.21-7.17-7-12.2-14.82-12.2-7.1,0-10.82,4.21-10.82,9.38,0,5,3.38,8.13,12.4,11.16,11.24,3.79,16.34,8.2,16.34,15,0,7.79-6.76,13.78-16.61,13.78-7,0-9.86-3-12.13-3-1.45,0-2.21,1.1-2.28,2.62l-1.17.07Z"/><path class="cls-1" d="M200.44,45.56V25.71H195V24.54c3.18,0,6.69-1.66,7.79-4.69h1.31v7.44c3.31-3.58,9.72-7.44,15.24-7.44,5.78,0,8.27,3.24,9.23,7.31,3.38-3.52,9.65-7.31,15.1-7.31,5.92,0,10.47,3.24,10.47,12.61v13.1c0,8,.62,8.82,5.45,8.82v1.17H245V54.38c4.14,0,5.45-.83,5.45-8.82V32.46c0-6.54-3-10.13-8.48-10.13-4.13,0-9.23,2.34-13.16,6.14a26.75,26.75,0,0,1,.27,4v13.1c0,8,.62,8.82,5.45,8.82v1.17H220V54.38c4.14,0,5.45-.83,5.45-8.82V32.46c0-6.54-2.34-10.13-7.79-10.13-4.27,0-9.65,2.55-13.58,6.55V45.56c0,8,.62,8.82,5.45,8.82v1.17H195V54.38C199.13,54.38,200.44,53.55,200.44,45.56Z"/><path class="cls-1" d="M267.78,45.56V25.78h-5.44V24.54c3.17,0,6.68-1.66,7.78-4.69h1.31V45.56c0,8,.07,8.82,5.45,8.82v1.17H262.34V54.38C266.47,54.38,267.78,53.55,267.78,45.56ZM266.54,8.89a3.24,3.24,0,1,1,6.48,0,3.24,3.24,0,1,1-6.48,0Z"/><path class="cls-1" d="M284.39,47.76V22.68H279.5V21.44c5.72,0,6.75-5.38,7.31-12.41h1.24V21.09h9.64v1.59h-9.64v24.4c0,5.3,2,7.71,4.75,7.71s4.62-2.06,6.27-5l1,.62c-2.48,4.34-4.69,6.34-8.48,6.34S284.39,54.93,284.39,47.76Z"/><path class="cls-1" d="M306.38,45.56V5.93h-5.44V4.69c3.24,0,6.68-1.66,7.78-4.69H310V26.6c3.45-3.37,9.31-6.75,14.55-6.75,5.92,0,10.47,3.24,10.47,12.61v13.1c0,8,.69,8.82,5.45,8.82v1.17H326V54.38c4.13,0,5.44-.83,5.44-8.82V32.46c0-6.54-3-10.13-8.48-10.13-4.06,0-9.1,2.28-12.89,5.86V45.56c0,8,.69,8.82,5.45,8.82v1.17H300.94V54.38C305.07,54.38,306.38,53.55,306.38,45.56Z"/><path class="cls-1" d="M345.67,53.83a2.88,2.88,0,0,1,3-2.89,2.83,2.83,0,0,1,2.9,2.89,2.88,2.88,0,0,1-2.9,3A2.94,2.94,0,0,1,345.67,53.83Z"/></g></g></svg>